<?xml version="1.0" encoding="UTF-8" standalone="no"?>
<!DOCTYPE svg PUBLIC "-//W3C//DTD SVG 1.1//EN"
 "http://www.w3.org/Graphics/SVG/1.1/DTD/svg11.dtd">
<!-- Generated by graphviz version 2.40.1 (20161225.0304)
 -->
<!-- Title: dependencies Pages: 1 -->
<svg width="3746pt" height="436pt"
 viewBox="0.00 0.00 3746.00 436.00" xmlns="http://www.w3.org/2000/svg" xmlns:xlink="http://www.w3.org/1999/xlink">
<g id="graph0" class="graph" transform="scale(1 1) rotate(0) translate(4 432)">
<title>dependencies</title>
<polygon fill="#ffffff" stroke="transparent" points="-4,4 -4,-432 3742,-432 3742,4 -4,4"/>
<text text-anchor="start" x="1848.0091" y="-42.4" font-family="sans-serif" font-weight="bold" font-size="14.00" fill="#000000">Legend</text>
<polygon fill="#ffffb3" stroke="transparent" points="1635,-10 1635,-30 1655,-30 1655,-10 1635,-10"/>
<text text-anchor="start" x="1658.629" y="-15.4" font-family="sans-serif" font-size="14.00" fill="#000000"> &#160;Declarations</text>
<polygon fill="#8dd3c7" stroke="transparent" points="1748,-10 1748,-30 1768,-30 1768,-10 1748,-10"/>
<text text-anchor="start" x="1771.7251" y="-15.4" font-family="sans-serif" font-size="14.00" fill="#000000"> &#160;Module</text>
<polygon fill="#80b1d3" stroke="transparent" points="1834,-10 1834,-30 1854,-30 1854,-10 1834,-10"/>
<text text-anchor="start" x="1857.7812" y="-15.4" font-family="sans-serif" font-size="14.00" fill="#000000"> &#160;Bootstrap</text>
<polygon fill="#fdb462" stroke="transparent" points="1931,-10 1931,-30 1951,-30 1951,-10 1931,-10"/>
<text text-anchor="start" x="1954.6732" y="-15.4" font-family="sans-serif" font-size="14.00" fill="#000000"> &#160;Providers</text>
<polygon fill="#fb8072" stroke="transparent" points="2027,-10 2027,-30 2047,-30 2047,-10 2027,-10"/>
<text text-anchor="start" x="2050.7258" y="-15.4" font-family="sans-serif" font-size="14.00" fill="#000000"> &#160;Exports</text>
<g id="clust1" class="cluster">
<title>cluster_AppModule</title>
<polygon fill="none" stroke="#000000" stroke-dasharray="1,5" points="8,-146 8,-420 2000,-420 2000,-146 8,-146"/>
</g>
<g id="clust2" class="cluster">
<title>cluster_AppModule_declarations</title>
<polygon fill="none" stroke="#000000" points="1870,-230 1870,-282 1992,-282 1992,-230 1870,-230"/>
</g>
<g id="clust4" class="cluster">
<title>cluster_AppModule_imports</title>
<polygon fill="none" stroke="#000000" points="864,-154 864,-282 1862,-282 1862,-154 864,-154"/>
</g>
<g id="clust6" class="cluster">
<title>cluster_AppModule_bootstrap</title>
<polygon fill="none" stroke="#000000" points="1239,-360 1239,-412 1363,-412 1363,-360 1239,-360"/>
</g>
<g id="clust7" class="cluster">
<title>cluster_AppModule_providers</title>
<polygon fill="none" stroke="#000000" points="16,-230 16,-282 856,-282 856,-230 16,-230"/>
</g>
<g id="clust8" class="cluster">
<title>cluster_AppRoutingModule</title>
<polygon fill="none" stroke="#000000" stroke-dasharray="1,5" points="2008,-222 2008,-290 2572,-290 2572,-222 2008,-222"/>
</g>
<g id="clust10" class="cluster">
<title>cluster_AppRoutingModule_imports</title>
<polygon fill="none" stroke="#000000" points="2016,-230 2016,-282 2210,-282 2210,-230 2016,-230"/>
</g>
<g id="clust11" class="cluster">
<title>cluster_AppRoutingModule_exports</title>
<polygon fill="none" stroke="#000000" points="2218,-230 2218,-282 2564,-282 2564,-230 2218,-230"/>
</g>
<g id="clust14" class="cluster">
<title>cluster_HomeModule</title>
<polygon fill="none" stroke="#000000" stroke-dasharray="1,5" points="2008,-146 2008,-214 2852,-214 2852,-146 2008,-146"/>
</g>
<g id="clust15" class="cluster">
<title>cluster_HomeModule_declarations</title>
<polygon fill="none" stroke="#000000" points="2016,-154 2016,-206 2148,-206 2148,-154 2016,-154"/>
</g>
<g id="clust17" class="cluster">
<title>cluster_HomeModule_imports</title>
<polygon fill="none" stroke="#000000" points="2458,-154 2458,-206 2844,-206 2844,-154 2458,-154"/>
</g>
<g id="clust18" class="cluster">
<title>cluster_HomeModule_exports</title>
<polygon fill="none" stroke="#000000" points="2156,-154 2156,-206 2292,-206 2292,-154 2156,-154"/>
</g>
<g id="clust20" class="cluster">
<title>cluster_HomeModule_providers</title>
<polygon fill="none" stroke="#000000" points="2300,-154 2300,-206 2450,-206 2450,-154 2300,-154"/>
</g>
<g id="clust21" class="cluster">
<title>cluster_HomeRoutingModule</title>
<polygon fill="none" stroke="#000000" stroke-dasharray="1,5" points="3088,-70 3088,-138 3302,-138 3302,-70 3088,-70"/>
</g>
<g id="clust23" class="cluster">
<title>cluster_HomeRoutingModule_imports</title>
<polygon fill="none" stroke="#000000" points="3096,-78 3096,-130 3294,-130 3294,-78 3096,-78"/>
</g>
<g id="clust27" class="cluster">
<title>cluster_WorkModule</title>
<polygon fill="none" stroke="#000000" stroke-dasharray="1,5" points="2860,-146 2860,-214 3730,-214 3730,-146 2860,-146"/>
</g>
<g id="clust28" class="cluster">
<title>cluster_WorkModule_declarations</title>
<polygon fill="none" stroke="#000000" points="2868,-154 2868,-206 3294,-206 3294,-154 2868,-154"/>
</g>
<g id="clust32" class="cluster">
<title>cluster_WorkModule_imports</title>
<polygon fill="none" stroke="#000000" points="3570,-154 3570,-206 3722,-206 3722,-154 3570,-154"/>
</g>
<g id="clust33" class="cluster">
<title>cluster_WorkModule_exports</title>
<polygon fill="none" stroke="#000000" points="3302,-154 3302,-206 3434,-206 3434,-154 3302,-154"/>
</g>
<g id="clust35" class="cluster">
<title>cluster_WorkModule_providers</title>
<polygon fill="none" stroke="#000000" points="3442,-154 3442,-206 3562,-206 3562,-154 3442,-154"/>
</g>
<!-- AppComponent -->
<g id="node1" class="node">
<title>AppComponent</title>
<polygon fill="#ffffb3" stroke="#000000" points="1983.9399,-274 1878.0601,-274 1878.0601,-238 1983.9399,-238 1983.9399,-274"/>
<text text-anchor="middle" x="1931" y="-251.8" font-family="Times,serif" font-size="14.00" fill="#000000">AppComponent</text>
</g>
<!-- AppModule -->
<g id="node2" class="node">
<title>AppModule</title>
<polygon fill="#8dd3c7" stroke="#000000" points="1342.6571,-339 1339.6571,-343 1318.6571,-343 1315.6571,-339 1259.3429,-339 1259.3429,-303 1342.6571,-303 1342.6571,-339"/>
<text text-anchor="middle" x="1301" y="-316.8" font-family="Times,serif" font-size="14.00" fill="#000000">AppModule</text>
</g>
<!-- AppComponent&#45;&gt;AppModule -->
<g id="edge1" class="edge">
<title>AppComponent&#45;&gt;AppModule</title>
<path fill="none" stroke="#000000" d="M1931,-274.2479C1931,-297.0179 1931,-333 1931,-333 1931,-333 1352.824,-333 1352.824,-333"/>
<polygon fill="#000000" stroke="#000000" points="1352.824,-329.5001 1342.824,-333 1352.8239,-336.5001 1352.824,-329.5001"/>
</g>
<!-- AppComponent  -->
<g id="node11" class="node">
<title>AppComponent </title>
<polygon fill="#80b1d3" stroke="#000000" points="1355.439,-404 1246.561,-404 1246.561,-368 1355.439,-368 1355.439,-404"/>
<text text-anchor="middle" x="1301" y="-381.8" font-family="Times,serif" font-size="14.00" fill="#000000">AppComponent </text>
</g>
<!-- AppModule&#45;&gt;AppComponent  -->
<g id="edge10" class="edge">
<title>AppModule&#45;&gt;AppComponent </title>
<path fill="none" stroke="#000000" stroke-dasharray="1,5" d="M1301,-339.1061C1301,-339.1061 1301,-357.991 1301,-357.991"/>
<polygon fill="#000000" stroke="#000000" points="1297.5001,-357.9909 1301,-367.991 1304.5001,-357.991 1297.5001,-357.9909"/>
</g>
<!-- BrowserModule -->
<g id="node3" class="node">
<title>BrowserModule</title>
<polygon fill="#8dd3c7" stroke="#000000" points="1544.4734,-198 1541.4734,-202 1520.4734,-202 1517.4734,-198 1437.5266,-198 1437.5266,-162 1544.4734,-162 1544.4734,-198"/>
<text text-anchor="middle" x="1491" y="-175.8" font-family="Times,serif" font-size="14.00" fill="#000000">BrowserModule</text>
</g>
<!-- BrowserModule&#45;&gt;AppModule -->
<g id="edge2" class="edge">
<title>BrowserModule&#45;&gt;AppModule</title>
<path fill="none" stroke="#000000" d="M1491,-198.2089C1491,-233.7679 1491,-309 1491,-309 1491,-309 1352.6963,-309 1352.6963,-309"/>
<polygon fill="#000000" stroke="#000000" points="1352.6963,-305.5001 1342.6963,-309 1352.6963,-312.5001 1352.6963,-305.5001"/>
</g>
<!-- AppRoutingModule -->
<g id="node4" class="node">
<title>AppRoutingModule</title>
<polygon fill="#8dd3c7" stroke="#000000" points="1854.2744,-198 1851.2744,-202 1830.2744,-202 1827.2744,-198 1725.7256,-198 1725.7256,-162 1854.2744,-162 1854.2744,-198"/>
<text text-anchor="middle" x="1790" y="-175.8" font-family="Times,serif" font-size="14.00" fill="#000000">AppRoutingModule</text>
</g>
<!-- AppRoutingModule&#45;&gt;AppModule -->
<g id="edge3" class="edge">
<title>AppRoutingModule&#45;&gt;AppModule</title>
<path fill="none" stroke="#000000" d="M1753.0842,-198.1446C1753.0842,-236.2265 1753.0842,-321 1753.0842,-321 1753.0842,-321 1352.7207,-321 1352.7207,-321"/>
<polygon fill="#000000" stroke="#000000" points="1352.7207,-317.5001 1342.7207,-321 1352.7206,-324.5001 1352.7207,-317.5001"/>
</g>
<!-- RouterModule  -->
<g id="node17" class="node">
<title>RouterModule </title>
<polygon fill="#fb8072" stroke="#000000" points="2555.6523,-274 2454.3477,-274 2454.3477,-238 2555.6523,-238 2555.6523,-274"/>
<text text-anchor="middle" x="2505" y="-251.8" font-family="Times,serif" font-size="14.00" fill="#000000">RouterModule </text>
</g>
<!-- AppRoutingModule&#45;&gt;RouterModule  -->
<g id="edge16" class="edge">
<title>AppRoutingModule&#45;&gt;RouterModule </title>
<path fill="none" stroke="#000000" stroke-dasharray="5,2" d="M1839.6471,-198.0511C1839.6471,-212.373 1839.6471,-230 1839.6471,-230 1839.6471,-230 2460.1025,-230 2460.1025,-230 2460.1025,-230 2460.1025,-230.7942 2460.1025,-230.7942"/>
<polygon fill="#000000" stroke="#000000" points="2456.6027,-227.9421 2460.1025,-237.9421 2463.6027,-227.9422 2456.6027,-227.9421"/>
</g>
<!-- HomeModule  -->
<g id="node18" class="node">
<title>HomeModule </title>
<polygon fill="#fb8072" stroke="#000000" points="2323.762,-274 2226.238,-274 2226.238,-238 2323.762,-238 2323.762,-274"/>
<text text-anchor="middle" x="2275" y="-251.8" font-family="Times,serif" font-size="14.00" fill="#000000">HomeModule </text>
</g>
<!-- AppRoutingModule&#45;&gt;HomeModule  -->
<g id="edge17" class="edge">
<title>AppRoutingModule&#45;&gt;HomeModule </title>
<path fill="none" stroke="#000000" stroke-dasharray="5,2" d="M1825.5817,-198.2819C1825.5817,-213.9478 1825.5817,-234 1825.5817,-234 1825.5817,-234 2254.9457,-234 2254.9457,-234 2254.9457,-234 2254.9457,-234.3832 2254.9457,-234.3832"/>
<polygon fill="#000000" stroke="#000000" points="2251.4459,-227.832 2254.9457,-237.8321 2258.4459,-227.8322 2251.4459,-227.832"/>
</g>
<!-- WorkModule  -->
<g id="node19" class="node">
<title>WorkModule </title>
<polygon fill="#fb8072" stroke="#000000" points="2436.425,-274 2341.575,-274 2341.575,-238 2436.425,-238 2436.425,-274"/>
<text text-anchor="middle" x="2389" y="-251.8" font-family="Times,serif" font-size="14.00" fill="#000000">WorkModule </text>
</g>
<!-- AppRoutingModule&#45;&gt;WorkModule  -->
<g id="edge18" class="edge">
<title>AppRoutingModule&#45;&gt;WorkModule </title>
<path fill="none" stroke="#000000" stroke-dasharray="5,2" d="M1832.6144,-198.1871C1832.6144,-213.1824 1832.6144,-232 1832.6144,-232 1832.6144,-232 2389,-232 2389,-232 2389,-232 2389,-232.581 2389,-232.581"/>
<polygon fill="#000000" stroke="#000000" points="2385.5002,-227.8097 2389,-237.8097 2392.5002,-227.8098 2385.5002,-227.8097"/>
</g>
<!-- HomeModule -->
<g id="node5" class="node">
<title>HomeModule</title>
<polygon fill="#8dd3c7" stroke="#000000" points="1743.7619,-274 1740.7619,-278 1719.7619,-278 1716.7619,-274 1650.2381,-274 1650.2381,-238 1743.7619,-238 1743.7619,-274"/>
<text text-anchor="middle" x="1697" y="-251.8" font-family="Times,serif" font-size="14.00" fill="#000000">HomeModule</text>
</g>
<!-- HomeModule&#45;&gt;AppModule -->
<g id="edge4" class="edge">
<title>HomeModule&#45;&gt;AppModule</title>
<path fill="none" stroke="#000000" d="M1649.8749,-262C1549.1346,-262 1321.9141,-262 1321.9141,-262 1321.9141,-262 1321.9141,-292.9775 1321.9141,-292.9775"/>
<polygon fill="#000000" stroke="#000000" points="1318.4142,-292.9774 1321.9141,-302.9775 1325.4142,-292.9775 1318.4142,-292.9774"/>
</g>
<!-- HomeComponent  -->
<g id="node24" class="node">
<title>HomeComponent </title>
<polygon fill="#fb8072" stroke="#000000" points="2283.5442,-198 2164.4558,-198 2164.4558,-162 2283.5442,-162 2283.5442,-198"/>
<text text-anchor="middle" x="2224" y="-175.8" font-family="Times,serif" font-size="14.00" fill="#000000">HomeComponent </text>
</g>
<!-- HomeModule&#45;&gt;HomeComponent  -->
<g id="edge24" class="edge">
<title>HomeModule&#45;&gt;HomeComponent </title>
<path fill="none" stroke="#000000" stroke-dasharray="5,2" d="M1728.2226,-237.7604C1728.2226,-222.4294 1728.2226,-203 1728.2226,-203 1728.2226,-203 2183.0744,-203 2183.0744,-203 2183.0744,-203 2183.0744,-202.5122 2183.0744,-202.5122"/>
<polygon fill="#000000" stroke="#000000" points="2186.5746,-208.1222 2183.0744,-198.1223 2179.5746,-208.1224 2186.5746,-208.1222"/>
</g>
<!-- WorkModule -->
<g id="node6" class="node">
<title>WorkModule</title>
<polygon fill="#8dd3c7" stroke="#000000" points="1853.926,-274 1850.926,-278 1829.926,-278 1826.926,-274 1762.074,-274 1762.074,-238 1853.926,-238 1853.926,-274"/>
<text text-anchor="middle" x="1808" y="-251.8" font-family="Times,serif" font-size="14.00" fill="#000000">WorkModule</text>
</g>
<!-- WorkModule&#45;&gt;AppModule -->
<g id="edge5" class="edge">
<title>WorkModule&#45;&gt;AppModule</title>
<path fill="none" stroke="#000000" d="M1808,-274.2843C1808,-295.3211 1808,-327 1808,-327 1808,-327 1352.9213,-327 1352.9213,-327"/>
<polygon fill="#000000" stroke="#000000" points="1352.9213,-323.5001 1342.9213,-327 1352.9212,-330.5001 1352.9213,-323.5001"/>
</g>
<!-- WorkComponent  -->
<g id="node31" class="node">
<title>WorkComponent </title>
<polygon fill="#fb8072" stroke="#000000" points="3426.208,-198 3309.792,-198 3309.792,-162 3426.208,-162 3426.208,-198"/>
<text text-anchor="middle" x="3368" y="-175.8" font-family="Times,serif" font-size="14.00" fill="#000000">WorkComponent </text>
</g>
<!-- WorkModule&#45;&gt;WorkComponent  -->
<g id="edge35" class="edge">
<title>WorkModule&#45;&gt;WorkComponent </title>
<path fill="none" stroke="#000000" stroke-dasharray="5,2" d="M1846.6798,-237.7566C1846.6798,-230.5703 1846.6798,-224 1846.6798,-224 1846.6798,-224 3368,-224 3368,-224 3368,-224 3368,-208.1505 3368,-208.1505"/>
<polygon fill="#000000" stroke="#000000" points="3371.5001,-208.1505 3368,-198.1505 3364.5001,-208.1506 3371.5001,-208.1505"/>
</g>
<!-- FormsModule -->
<g id="node7" class="node">
<title>FormsModule</title>
<polygon fill="#8dd3c7" stroke="#000000" points="967.8288,-198 964.8288,-202 943.8288,-202 940.8288,-198 872.1712,-198 872.1712,-162 967.8288,-162 967.8288,-198"/>
<text text-anchor="middle" x="920" y="-175.8" font-family="Times,serif" font-size="14.00" fill="#000000">FormsModule</text>
</g>
<!-- FormsModule&#45;&gt;AppModule -->
<g id="edge6" class="edge">
<title>FormsModule&#45;&gt;AppModule</title>
<path fill="none" stroke="#000000" d="M920,-198.2067C920,-235.0559 920,-315 920,-315 920,-315 1249.1365,-315 1249.1365,-315"/>
<polygon fill="#000000" stroke="#000000" points="1249.1365,-318.5001 1259.1365,-315 1249.1364,-311.5001 1249.1365,-318.5001"/>
</g>
<!-- ReactiveFormsModule -->
<g id="node8" class="node">
<title>ReactiveFormsModule</title>
<polygon fill="#8dd3c7" stroke="#000000" points="1707.3047,-198 1704.3047,-202 1683.3047,-202 1680.3047,-198 1562.6953,-198 1562.6953,-162 1707.3047,-162 1707.3047,-198"/>
<text text-anchor="middle" x="1635" y="-175.8" font-family="Times,serif" font-size="14.00" fill="#000000">ReactiveFormsModule</text>
</g>
<!-- ReactiveFormsModule&#45;&gt;AppModule -->
<g id="edge7" class="edge">
<title>ReactiveFormsModule&#45;&gt;AppModule</title>
<path fill="none" stroke="#000000" d="M1606.4835,-198.2067C1606.4835,-235.0559 1606.4835,-315 1606.4835,-315 1606.4835,-315 1352.8356,-315 1352.8356,-315"/>
<polygon fill="#000000" stroke="#000000" points="1352.8357,-311.5001 1342.8356,-315 1352.8356,-318.5001 1352.8357,-311.5001"/>
</g>
<!-- ReactiveFormsModule&#45;&gt;HomeModule -->
<g id="edge21" class="edge">
<title>ReactiveFormsModule&#45;&gt;HomeModule</title>
<path fill="none" stroke="#000000" d="M1669.1302,-198.0109C1669.1302,-198.0109 1669.1302,-227.855 1669.1302,-227.855"/>
<polygon fill="#000000" stroke="#000000" points="1665.6303,-227.8549 1669.1302,-237.855 1672.6303,-227.855 1665.6303,-227.8549"/>
</g>
<!-- ReactiveFormsModule&#45;&gt;WorkModule -->
<g id="edge32" class="edge">
<title>ReactiveFormsModule&#45;&gt;WorkModule</title>
<path fill="none" stroke="#000000" d="M1688.1412,-198.027C1688.1412,-214.3976 1688.1412,-236 1688.1412,-236 1688.1412,-236 1769.3202,-236 1769.3202,-236 1769.3202,-236 1769.3202,-236.1846 1769.3202,-236.1846"/>
<polygon fill="#000000" stroke="#000000" points="1765.8208,-227.8455 1769.3202,-237.8457 1772.8208,-227.8459 1765.8208,-227.8455"/>
</g>
<!-- AngularFireDatabaseModule -->
<g id="node9" class="node">
<title>AngularFireDatabaseModule</title>
<polygon fill="#8dd3c7" stroke="#000000" points="1164.771,-198 1161.771,-202 1140.771,-202 1137.771,-198 985.229,-198 985.229,-162 1164.771,-162 1164.771,-198"/>
<text text-anchor="middle" x="1075" y="-175.8" font-family="Times,serif" font-size="14.00" fill="#000000">AngularFireDatabaseModule</text>
</g>
<!-- AngularFireDatabaseModule&#45;&gt;AppModule -->
<g id="edge8" class="edge">
<title>AngularFireDatabaseModule&#45;&gt;AppModule</title>
<path fill="none" stroke="#000000" d="M1075,-198.2089C1075,-233.7679 1075,-309 1075,-309 1075,-309 1249.2847,-309 1249.2847,-309"/>
<polygon fill="#000000" stroke="#000000" points="1249.2848,-312.5001 1259.2847,-309 1249.2847,-305.5001 1249.2848,-312.5001"/>
</g>
<!-- AngularFireModule.initializeApp(args) -->
<g id="node10" class="node">
<title>AngularFireModule.initializeApp(args)</title>
<polygon fill="#8dd3c7" stroke="#000000" points="1419.7057,-198 1416.7057,-202 1395.7057,-202 1392.7057,-198 1182.2943,-198 1182.2943,-162 1419.7057,-162 1419.7057,-198"/>
<text text-anchor="middle" x="1301" y="-175.8" font-family="Times,serif" font-size="14.00" fill="#000000">AngularFireModule.initializeApp(args)</text>
</g>
<!-- AngularFireModule.initializeApp(args)&#45;&gt;AppModule -->
<g id="edge9" class="edge">
<title>AngularFireModule.initializeApp(args)&#45;&gt;AppModule</title>
<path fill="none" stroke="#000000" d="M1301,-198.1446C1301,-198.1446 1301,-292.925 1301,-292.925"/>
<polygon fill="#000000" stroke="#000000" points="1297.5001,-292.925 1301,-302.925 1304.5001,-292.925 1297.5001,-292.925"/>
</g>
<!-- AngularFireAuth -->
<g id="node12" class="node">
<title>AngularFireAuth</title>
<ellipse fill="#fdb462" stroke="#000000" cx="238" cy="-256" rx="77.5878" ry="18"/>
<text text-anchor="middle" x="238" y="-251.8" font-family="Times,serif" font-size="14.00" fill="#000000">AngularFireAuth</text>
</g>
<!-- AngularFireAuth&#45;&gt;AppModule -->
<g id="edge11" class="edge">
<title>AngularFireAuth&#45;&gt;AppModule</title>
<path fill="none" stroke="#000000" d="M238,-274.2843C238,-295.3211 238,-327 238,-327 238,-327 1249.3291,-327 1249.3291,-327"/>
<polygon fill="#000000" stroke="#000000" points="1249.3292,-330.5001 1259.3291,-327 1249.3291,-323.5001 1249.3292,-330.5001"/>
</g>
<!-- AuthService -->
<g id="node13" class="node">
<title>AuthService</title>
<ellipse fill="#fdb462" stroke="#000000" cx="83" cy="-256" rx="59.1083" ry="18"/>
<text text-anchor="middle" x="83" y="-251.8" font-family="Times,serif" font-size="14.00" fill="#000000">AuthService</text>
</g>
<!-- AuthService&#45;&gt;AppModule -->
<g id="edge12" class="edge">
<title>AuthService&#45;&gt;AppModule</title>
<path fill="none" stroke="#000000" d="M83,-274.2479C83,-297.0179 83,-333 83,-333 83,-333 1249.0737,-333 1249.0737,-333"/>
<polygon fill="#000000" stroke="#000000" points="1249.0737,-336.5001 1259.0737,-333 1249.0736,-329.5001 1249.0737,-336.5001"/>
</g>
<!-- AppService -->
<g id="node14" class="node">
<title>AppService</title>
<ellipse fill="#fdb462" stroke="#000000" cx="791" cy="-256" rx="56.7406" ry="18"/>
<text text-anchor="middle" x="791" y="-251.8" font-family="Times,serif" font-size="14.00" fill="#000000">AppService</text>
</g>
<!-- AppService&#45;&gt;AppModule -->
<g id="edge13" class="edge">
<title>AppService&#45;&gt;AppModule</title>
<path fill="none" stroke="#000000" d="M844.7398,-250C971.791,-250 1280.0859,-250 1280.0859,-250 1280.0859,-250 1280.0859,-292.7157 1280.0859,-292.7157"/>
<polygon fill="#000000" stroke="#000000" points="1276.586,-292.7157 1280.0859,-302.7157 1283.586,-292.7158 1276.586,-292.7157"/>
</g>
<!-- { provide: APP_BASE_HREF, useValue: &#39;/&#39; } -->
<g id="node15" class="node">
<title>{ provide: APP_BASE_HREF, useValue: &#39;/&#39; }</title>
<ellipse fill="#fdb462" stroke="#000000" cx="525" cy="-256" rx="191.343" ry="18"/>
<text text-anchor="middle" x="525" y="-251.8" font-family="Times,serif" font-size="14.00" fill="#000000">{ provide: APP_BASE_HREF, useValue: &#39;/&#39; }</text>
</g>
<!-- { provide: APP_BASE_HREF, useValue: &#39;/&#39; }&#45;&gt;AppModule -->
<g id="edge14" class="edge">
<title>{ provide: APP_BASE_HREF, useValue: &#39;/&#39; }&#45;&gt;AppModule</title>
<path fill="none" stroke="#000000" d="M525,-274.1061C525,-293.3391 525,-321 525,-321 525,-321 1249.2789,-321 1249.2789,-321"/>
<polygon fill="#000000" stroke="#000000" points="1249.2789,-324.5001 1259.2789,-321 1249.2788,-317.5001 1249.2789,-324.5001"/>
</g>
<!-- RouterModule.forRoot(args) -->
<g id="node16" class="node">
<title>RouterModule.forRoot(args)</title>
<polygon fill="#8dd3c7" stroke="#000000" points="2201.8419,-274 2198.8419,-278 2177.8419,-278 2174.8419,-274 2024.1581,-274 2024.1581,-238 2201.8419,-238 2201.8419,-274"/>
<text text-anchor="middle" x="2113" y="-251.8" font-family="Times,serif" font-size="14.00" fill="#000000">RouterModule.forRoot(args)</text>
</g>
<!-- RouterModule.forRoot(args)&#45;&gt;AppRoutingModule -->
<g id="edge15" class="edge">
<title>RouterModule.forRoot(args)&#45;&gt;AppRoutingModule</title>
<path fill="none" stroke="#000000" d="M2024.2252,-256C2012.2423,-256 2003.9737,-256 2003.9737,-256 2003.9737,-256 2003.9737,-180 2003.9737,-180 2003.9737,-180 1864.4893,-180 1864.4893,-180"/>
<polygon fill="#000000" stroke="#000000" points="1864.4894,-176.5001 1854.4893,-180 1864.4893,-183.5001 1864.4894,-176.5001"/>
</g>
<!-- HomeComponent -->
<g id="node20" class="node">
<title>HomeComponent</title>
<polygon fill="#ffffb3" stroke="#000000" points="2139.5451,-198 2024.4549,-198 2024.4549,-162 2139.5451,-162 2139.5451,-198"/>
<text text-anchor="middle" x="2082" y="-175.8" font-family="Times,serif" font-size="14.00" fill="#000000">HomeComponent</text>
</g>
<!-- HomeComponent&#45;&gt;HomeModule -->
<g id="edge19" class="edge">
<title>HomeComponent&#45;&gt;HomeModule</title>
<path fill="none" stroke="#000000" d="M2082.0507,-198.08C2082.0507,-199.8464 2082.0507,-201 2082.0507,-201 2082.0507,-201 1730.8323,-201 1730.8323,-201 1730.8323,-201 1730.8323,-227.9909 1730.8323,-227.9909"/>
<polygon fill="#000000" stroke="#000000" points="1727.3324,-227.9909 1730.8323,-237.9909 1734.3324,-227.991 1727.3324,-227.9909"/>
</g>
<!-- CommonModule -->
<g id="node21" class="node">
<title>CommonModule</title>
<polygon fill="#8dd3c7" stroke="#000000" points="2679.6681,-198 2676.6681,-202 2655.6681,-202 2652.6681,-198 2568.3319,-198 2568.3319,-162 2679.6681,-162 2679.6681,-198"/>
<text text-anchor="middle" x="2624" y="-175.8" font-family="Times,serif" font-size="14.00" fill="#000000">CommonModule</text>
</g>
<!-- CommonModule&#45;&gt;HomeModule -->
<g id="edge20" class="edge">
<title>CommonModule&#45;&gt;HomeModule</title>
<path fill="none" stroke="#000000" d="M2605.3887,-198.2015C2605.3887,-204.028 2605.3887,-209 2605.3887,-209 2605.3887,-209 1738.6614,-209 1738.6614,-209 1738.6614,-209 1738.6614,-227.963 1738.6614,-227.963"/>
<polygon fill="#000000" stroke="#000000" points="1735.1615,-227.963 1738.6614,-237.963 1742.1615,-227.963 1735.1615,-227.963"/>
</g>
<!-- CommonModule&#45;&gt;WorkModule -->
<g id="edge31" class="edge">
<title>CommonModule&#45;&gt;WorkModule</title>
<path fill="none" stroke="#000000" d="M2642.6113,-198.32C2642.6113,-206.7883 2642.6113,-215 2642.6113,-215 2642.6113,-215 1783.3856,-215 1783.3856,-215 1783.3856,-215 1783.3856,-227.8975 1783.3856,-227.8975"/>
<polygon fill="#000000" stroke="#000000" points="1779.8857,-227.8974 1783.3856,-237.8975 1786.8857,-227.8975 1779.8857,-227.8974"/>
</g>
<!-- HttpModule -->
<g id="node22" class="node">
<title>HttpModule</title>
<polygon fill="#8dd3c7" stroke="#000000" points="2550.4387,-198 2547.4387,-202 2526.4387,-202 2523.4387,-198 2465.5613,-198 2465.5613,-162 2550.4387,-162 2550.4387,-198"/>
<text text-anchor="middle" x="2508" y="-175.8" font-family="Times,serif" font-size="14.00" fill="#000000">HttpModule</text>
</g>
<!-- HttpModule&#45;&gt;HomeModule -->
<g id="edge22" class="edge">
<title>HttpModule&#45;&gt;HomeModule</title>
<path fill="none" stroke="#000000" d="M2493.9271,-198.1592C2493.9271,-203.0433 2493.9271,-207 2493.9271,-207 2493.9271,-207 1736.0517,-207 1736.0517,-207 1736.0517,-207 1736.0517,-227.7542 1736.0517,-227.7542"/>
<polygon fill="#000000" stroke="#000000" points="1732.5518,-227.7542 1736.0517,-237.7542 1739.5518,-227.7542 1732.5518,-227.7542"/>
</g>
<!-- HttpModule&#45;&gt;WorkModule -->
<g id="edge33" class="edge">
<title>HttpModule&#45;&gt;WorkModule</title>
<path fill="none" stroke="#000000" d="M2522.0729,-198.0449C2522.0729,-205.749 2522.0729,-213 2522.0729,-213 2522.0729,-213 1776.3529,-213 1776.3529,-213 1776.3529,-213 1776.3529,-227.5146 1776.3529,-227.5146"/>
<polygon fill="#000000" stroke="#000000" points="1772.853,-227.5145 1776.3529,-237.5146 1779.853,-227.5146 1772.853,-227.5145"/>
</g>
<!-- HomeRoutingModule -->
<g id="node23" class="node">
<title>HomeRoutingModule</title>
<polygon fill="#8dd3c7" stroke="#000000" points="2836.3795,-198 2833.3795,-202 2812.3795,-202 2809.3795,-198 2697.6205,-198 2697.6205,-162 2836.3795,-162 2836.3795,-198"/>
<text text-anchor="middle" x="2767" y="-175.8" font-family="Times,serif" font-size="14.00" fill="#000000">HomeRoutingModule</text>
</g>
<!-- HomeRoutingModule&#45;&gt;HomeModule -->
<g id="edge23" class="edge">
<title>HomeRoutingModule&#45;&gt;HomeModule</title>
<path fill="none" stroke="#000000" d="M2743.8534,-198.0328C2743.8534,-204.8526 2743.8534,-211 2743.8534,-211 2743.8534,-211 1741.2711,-211 1741.2711,-211 1741.2711,-211 1741.2711,-227.9561 1741.2711,-227.9561"/>
<polygon fill="#000000" stroke="#000000" points="1737.7712,-227.956 1741.2711,-237.9561 1744.7712,-227.9561 1737.7712,-227.956"/>
</g>
<!-- HomeRoutingModule&#45;&gt;RouterModule  -->
<g id="edge27" class="edge">
<title>HomeRoutingModule&#45;&gt;RouterModule </title>
<path fill="none" stroke="#000000" stroke-dasharray="5,2" d="M2790.1466,-198.0267C2790.1466,-218.7672 2790.1466,-250 2790.1466,-250 2790.1466,-250 2565.6499,-250 2565.6499,-250"/>
<polygon fill="#000000" stroke="#000000" points="2565.65,-246.5001 2555.6499,-250 2565.6499,-253.5001 2565.65,-246.5001"/>
</g>
<!-- Authexitguard -->
<g id="node25" class="node">
<title>Authexitguard</title>
<ellipse fill="#fdb462" stroke="#000000" cx="2375" cy="-180" rx="66.6363" ry="18"/>
<text text-anchor="middle" x="2375" y="-175.8" font-family="Times,serif" font-size="14.00" fill="#000000">Authexitguard</text>
</g>
<!-- Authexitguard&#45;&gt;HomeModule -->
<g id="edge25" class="edge">
<title>Authexitguard&#45;&gt;HomeModule</title>
<path fill="none" stroke="#000000" d="M2315.9064,-188.4639C2315.9064,-195.7166 2315.9064,-205 2315.9064,-205 2315.9064,-205 1733.442,-205 1733.442,-205 1733.442,-205 1733.442,-227.8757 1733.442,-227.8757"/>
<polygon fill="#000000" stroke="#000000" points="1729.9421,-227.8757 1733.442,-237.8757 1736.9421,-227.8757 1729.9421,-227.8757"/>
</g>
<!-- RouterModule.forChild(args) -->
<g id="node26" class="node">
<title>RouterModule.forChild(args)</title>
<polygon fill="#8dd3c7" stroke="#000000" points="3285.7323,-122 3282.7323,-126 3261.7323,-126 3258.7323,-122 3104.2677,-122 3104.2677,-86 3285.7323,-86 3285.7323,-122"/>
<text text-anchor="middle" x="3195" y="-99.8" font-family="Times,serif" font-size="14.00" fill="#000000">RouterModule.forChild(args)</text>
</g>
<!-- RouterModule.forChild(args)&#45;&gt;HomeRoutingModule -->
<g id="edge26" class="edge">
<title>RouterModule.forChild(args)&#45;&gt;HomeRoutingModule</title>
<path fill="none" stroke="#000000" d="M3104.2322,-104C2978.5967,-104 2767,-104 2767,-104 2767,-104 2767,-151.9891 2767,-151.9891"/>
<polygon fill="#000000" stroke="#000000" points="2763.5001,-151.989 2767,-161.9891 2770.5001,-151.9891 2763.5001,-151.989"/>
</g>
<!-- WorkRoutingModule -->
<g id="node30" class="node">
<title>WorkRoutingModule</title>
<polygon fill="#8dd3c7" stroke="#000000" points="3714.0436,-198 3711.0436,-202 3690.0436,-202 3687.0436,-198 3577.9564,-198 3577.9564,-162 3714.0436,-162 3714.0436,-198"/>
<text text-anchor="middle" x="3646" y="-175.8" font-family="Times,serif" font-size="14.00" fill="#000000">WorkRoutingModule</text>
</g>
<!-- RouterModule.forChild(args)&#45;&gt;WorkRoutingModule -->
<g id="edge37" class="edge">
<title>RouterModule.forChild(args)&#45;&gt;WorkRoutingModule</title>
<path fill="none" stroke="#000000" d="M3285.7241,-104C3417.4234,-104 3646,-104 3646,-104 3646,-104 3646,-151.9891 3646,-151.9891"/>
<polygon fill="#000000" stroke="#000000" points="3642.5001,-151.989 3646,-161.9891 3649.5001,-151.9891 3642.5001,-151.989"/>
</g>
<!-- WorkComponent -->
<g id="node27" class="node">
<title>WorkComponent</title>
<polygon fill="#ffffb3" stroke="#000000" points="3285.7078,-198 3172.2922,-198 3172.2922,-162 3285.7078,-162 3285.7078,-198"/>
<text text-anchor="middle" x="3229" y="-175.8" font-family="Times,serif" font-size="14.00" fill="#000000">WorkComponent</text>
</g>
<!-- WorkComponent&#45;&gt;WorkModule -->
<g id="edge28" class="edge">
<title>WorkComponent&#45;&gt;WorkModule</title>
<path fill="none" stroke="#000000" d="M3229,-198.0555C3229,-209.439 3229,-222 3229,-222 3229,-222 1804.4837,-222 1804.4837,-222 1804.4837,-222 1804.4837,-227.8056 1804.4837,-227.8056"/>
<polygon fill="#000000" stroke="#000000" points="1800.9838,-227.8055 1804.4837,-237.8056 1807.9838,-227.8056 1800.9838,-227.8055"/>
</g>
<!-- EstudianteComponent -->
<g id="node28" class="node">
<title>EstudianteComponent</title>
<polygon fill="#ffffb3" stroke="#000000" points="3154.4313,-198 3013.5687,-198 3013.5687,-162 3154.4313,-162 3154.4313,-198"/>
<text text-anchor="middle" x="3084" y="-175.8" font-family="Times,serif" font-size="14.00" fill="#000000">EstudianteComponent</text>
</g>
<!-- EstudianteComponent&#45;&gt;WorkModule -->
<g id="edge29" class="edge">
<title>EstudianteComponent&#45;&gt;WorkModule</title>
<path fill="none" stroke="#000000" d="M3084,-198.1274C3084,-208.7109 3084,-220 3084,-220 3084,-220 1797.451,-220 1797.451,-220 1797.451,-220 1797.451,-227.5782 1797.451,-227.5782"/>
<polygon fill="#000000" stroke="#000000" points="1793.9511,-227.5781 1797.451,-237.5782 1800.9511,-227.5782 1793.9511,-227.5781"/>
</g>
<!-- SaludoComponent -->
<g id="node29" class="node">
<title>SaludoComponent</title>
<polygon fill="#ffffb3" stroke="#000000" points="2996.2204,-198 2875.7796,-198 2875.7796,-162 2996.2204,-162 2996.2204,-198"/>
<text text-anchor="middle" x="2936" y="-175.8" font-family="Times,serif" font-size="14.00" fill="#000000">SaludoComponent</text>
</g>
<!-- SaludoComponent&#45;&gt;WorkModule -->
<g id="edge30" class="edge">
<title>SaludoComponent&#45;&gt;WorkModule</title>
<path fill="none" stroke="#000000" d="M2936,-198.0664C2936,-207.4587 2936,-217 2936,-217 2936,-217 1790.4183,-217 1790.4183,-217 1790.4183,-217 1790.4183,-227.8701 1790.4183,-227.8701"/>
<polygon fill="#000000" stroke="#000000" points="1786.9184,-227.8701 1790.4183,-237.8701 1793.9184,-227.8701 1786.9184,-227.8701"/>
</g>
<!-- WorkRoutingModule&#45;&gt;WorkModule -->
<g id="edge34" class="edge">
<title>WorkRoutingModule&#45;&gt;WorkModule</title>
<path fill="none" stroke="#000000" d="M3623.2429,-198.1467C3623.2429,-211.7395 3623.2429,-228 3623.2429,-228 3623.2429,-228 1818.549,-228 1818.549,-228 1818.549,-228 1818.549,-228.9793 1818.549,-228.9793"/>
<polygon fill="#000000" stroke="#000000" points="1815.0492,-227.793 1818.549,-237.793 1822.0492,-227.7931 1815.0492,-227.793"/>
</g>
<!-- WorkRoutingModule&#45;&gt;RouterModule  -->
<g id="edge38" class="edge">
<title>WorkRoutingModule&#45;&gt;RouterModule </title>
<path fill="none" stroke="#000000" stroke-dasharray="5,2" d="M3668.7571,-198.1985C3668.7571,-222.3563 3668.7571,-262 3668.7571,-262 3668.7571,-262 2565.7535,-262 2565.7535,-262"/>
<polygon fill="#000000" stroke="#000000" points="2565.7535,-258.5001 2555.7535,-262 2565.7535,-265.5001 2565.7535,-258.5001"/>
</g>
<!-- Authguard -->
<g id="node32" class="node">
<title>Authguard</title>
<ellipse fill="#fdb462" stroke="#000000" cx="3502" cy="-180" rx="52.1713" ry="18"/>
<text text-anchor="middle" x="3502" y="-175.8" font-family="Times,serif" font-size="14.00" fill="#000000">Authguard</text>
</g>
<!-- Authguard&#45;&gt;WorkModule -->
<g id="edge36" class="edge">
<title>Authguard&#45;&gt;WorkModule</title>
<path fill="none" stroke="#000000" d="M3502,-198.1804C3502,-211.0382 3502,-226 3502,-226 3502,-226 1811.5163,-226 1811.5163,-226 1811.5163,-226 1811.5163,-227.8568 1811.5163,-227.8568"/>
<polygon fill="#000000" stroke="#000000" points="1808.0164,-227.8568 1811.5163,-237.8568 1815.0164,-227.8568 1808.0164,-227.8568"/>
</g>
</g>
</svg>
