<?xml version="1.0" encoding="UTF-8" standalone="no"?>
<!DOCTYPE svg PUBLIC "-//W3C//DTD SVG 1.1//EN"
 "http://www.w3.org/Graphics/SVG/1.1/DTD/svg11.dtd">
<!-- Generated by graphviz version 2.40.1 (20161225.0304)
 -->
<!-- Title: dependencies Pages: 1 -->
<svg width="2237pt" height="284pt"
 viewBox="0.00 0.00 2237.00 284.00" xmlns="http://www.w3.org/2000/svg" xmlns:xlink="http://www.w3.org/1999/xlink">
<g id="graph0" class="graph" transform="scale(1 1) rotate(0) translate(4 280)">
<title>dependencies</title>
<polygon fill="#ffffff" stroke="transparent" points="-4,4 -4,-280 2233,-280 2233,4 -4,4"/>
<text text-anchor="start" x="1093.5091" y="-42.4" font-family="sans-serif" font-weight="bold" font-size="14.00" fill="#000000">Legend</text>
<polygon fill="#ffffb3" stroke="transparent" points="880.5,-10 880.5,-30 900.5,-30 900.5,-10 880.5,-10"/>
<text text-anchor="start" x="904.129" y="-15.4" font-family="sans-serif" font-size="14.00" fill="#000000"> &#160;Declarations</text>
<polygon fill="#8dd3c7" stroke="transparent" points="993.5,-10 993.5,-30 1013.5,-30 1013.5,-10 993.5,-10"/>
<text text-anchor="start" x="1017.2251" y="-15.4" font-family="sans-serif" font-size="14.00" fill="#000000"> &#160;Module</text>
<polygon fill="#80b1d3" stroke="transparent" points="1079.5,-10 1079.5,-30 1099.5,-30 1099.5,-10 1079.5,-10"/>
<text text-anchor="start" x="1103.2812" y="-15.4" font-family="sans-serif" font-size="14.00" fill="#000000"> &#160;Bootstrap</text>
<polygon fill="#fdb462" stroke="transparent" points="1176.5,-10 1176.5,-30 1196.5,-30 1196.5,-10 1176.5,-10"/>
<text text-anchor="start" x="1200.1732" y="-15.4" font-family="sans-serif" font-size="14.00" fill="#000000"> &#160;Providers</text>
<polygon fill="#fb8072" stroke="transparent" points="1272.5,-10 1272.5,-30 1292.5,-30 1292.5,-10 1272.5,-10"/>
<text text-anchor="start" x="1296.2258" y="-15.4" font-family="sans-serif" font-size="14.00" fill="#000000"> &#160;Exports</text>
<g id="clust1" class="cluster">
<title>cluster_AppModule</title>
<polygon fill="none" stroke="#000000" stroke-dasharray="1,5" points="8,-70 8,-268 2221,-268 2221,-70 8,-70"/>
</g>
<g id="clust2" class="cluster">
<title>cluster_AppModule_declarations</title>
<polygon fill="none" stroke="#000000" points="2091,-78 2091,-130 2213,-130 2213,-78 2091,-78"/>
</g>
<g id="clust4" class="cluster">
<title>cluster_AppModule_imports</title>
<polygon fill="none" stroke="#000000" points="864,-78 864,-130 2083,-130 2083,-78 864,-78"/>
</g>
<g id="clust6" class="cluster">
<title>cluster_AppModule_bootstrap</title>
<polygon fill="none" stroke="#000000" points="1335,-208 1335,-260 1459,-260 1459,-208 1335,-208"/>
</g>
<g id="clust7" class="cluster">
<title>cluster_AppModule_providers</title>
<polygon fill="none" stroke="#000000" points="16,-78 16,-130 856,-130 856,-78 16,-78"/>
</g>
<!-- AppComponent -->
<g id="node1" class="node">
<title>AppComponent</title>
<polygon fill="#ffffb3" stroke="#000000" points="2204.9399,-122 2099.0601,-122 2099.0601,-86 2204.9399,-86 2204.9399,-122"/>
<text text-anchor="middle" x="2152" y="-99.8" font-family="Times,serif" font-size="14.00" fill="#000000">AppComponent</text>
</g>
<!-- AppModule -->
<g id="node2" class="node">
<title>AppModule</title>
<polygon fill="#8dd3c7" stroke="#000000" points="1438.6571,-187 1435.6571,-191 1414.6571,-191 1411.6571,-187 1355.3429,-187 1355.3429,-151 1438.6571,-151 1438.6571,-187"/>
<text text-anchor="middle" x="1397" y="-164.8" font-family="Times,serif" font-size="14.00" fill="#000000">AppModule</text>
</g>
<!-- AppComponent&#45;&gt;AppModule -->
<g id="edge1" class="edge">
<title>AppComponent&#45;&gt;AppModule</title>
<path fill="none" stroke="#000000" d="M2152,-122.0908C2152,-145.1328 2152,-182 2152,-182 2152,-182 1448.6675,-182 1448.6675,-182"/>
<polygon fill="#000000" stroke="#000000" points="1448.6675,-178.5001 1438.6675,-182 1448.6675,-185.5001 1448.6675,-178.5001"/>
</g>
<!-- AppComponent  -->
<g id="node11" class="node">
<title>AppComponent </title>
<polygon fill="#80b1d3" stroke="#000000" points="1451.439,-252 1342.561,-252 1342.561,-216 1451.439,-216 1451.439,-252"/>
<text text-anchor="middle" x="1397" y="-229.8" font-family="Times,serif" font-size="14.00" fill="#000000">AppComponent </text>
</g>
<!-- AppModule&#45;&gt;AppComponent  -->
<g id="edge10" class="edge">
<title>AppModule&#45;&gt;AppComponent </title>
<path fill="none" stroke="#000000" stroke-dasharray="1,5" d="M1397,-187.1061C1397,-187.1061 1397,-205.991 1397,-205.991"/>
<polygon fill="#000000" stroke="#000000" points="1393.5001,-205.9909 1397,-215.991 1400.5001,-205.991 1393.5001,-205.9909"/>
</g>
<!-- BrowserModule -->
<g id="node3" class="node">
<title>BrowserModule</title>
<polygon fill="#8dd3c7" stroke="#000000" points="2075.4734,-122 2072.4734,-126 2051.4734,-126 2048.4734,-122 1968.5266,-122 1968.5266,-86 2075.4734,-86 2075.4734,-122"/>
<text text-anchor="middle" x="2022" y="-99.8" font-family="Times,serif" font-size="14.00" fill="#000000">BrowserModule</text>
</g>
<!-- BrowserModule&#45;&gt;AppModule -->
<g id="edge2" class="edge">
<title>BrowserModule&#45;&gt;AppModule</title>
<path fill="none" stroke="#000000" d="M2022,-122.0449C2022,-143.6623 2022,-177 2022,-177 2022,-177 1448.9785,-177 1448.9785,-177"/>
<polygon fill="#000000" stroke="#000000" points="1448.9785,-173.5001 1438.9785,-177 1448.9785,-180.5001 1448.9785,-173.5001"/>
</g>
<!-- AppRoutingModule -->
<g id="node4" class="node">
<title>AppRoutingModule</title>
<polygon fill="#8dd3c7" stroke="#000000" points="1950.2744,-122 1947.2744,-126 1926.2744,-126 1923.2744,-122 1821.7256,-122 1821.7256,-86 1950.2744,-86 1950.2744,-122"/>
<text text-anchor="middle" x="1886" y="-99.8" font-family="Times,serif" font-size="14.00" fill="#000000">AppRoutingModule</text>
</g>
<!-- AppRoutingModule&#45;&gt;AppModule -->
<g id="edge3" class="edge">
<title>AppRoutingModule&#45;&gt;AppModule</title>
<path fill="none" stroke="#000000" d="M1886,-122.2228C1886,-142.3652 1886,-172 1886,-172 1886,-172 1448.6919,-172 1448.6919,-172"/>
<polygon fill="#000000" stroke="#000000" points="1448.6919,-168.5001 1438.6919,-172 1448.6918,-175.5001 1448.6919,-168.5001"/>
</g>
<!-- HomeModule -->
<g id="node5" class="node">
<title>HomeModule</title>
<polygon fill="#8dd3c7" stroke="#000000" points="1803.7619,-122 1800.7619,-126 1779.7619,-126 1776.7619,-122 1710.2381,-122 1710.2381,-86 1803.7619,-86 1803.7619,-122"/>
<text text-anchor="middle" x="1757" y="-99.8" font-family="Times,serif" font-size="14.00" fill="#000000">HomeModule</text>
</g>
<!-- HomeModule&#45;&gt;AppModule -->
<g id="edge4" class="edge">
<title>HomeModule&#45;&gt;AppModule</title>
<path fill="none" stroke="#000000" d="M1757,-122.2222C1757,-140.8285 1757,-167 1757,-167 1757,-167 1449.0011,-167 1449.0011,-167"/>
<polygon fill="#000000" stroke="#000000" points="1449.0012,-163.5001 1439.0011,-167 1449.0011,-170.5001 1449.0012,-163.5001"/>
</g>
<!-- WorkModule -->
<g id="node6" class="node">
<title>WorkModule</title>
<polygon fill="#8dd3c7" stroke="#000000" points="1691.926,-122 1688.926,-126 1667.926,-126 1664.926,-122 1600.074,-122 1600.074,-86 1691.926,-86 1691.926,-122"/>
<text text-anchor="middle" x="1646" y="-99.8" font-family="Times,serif" font-size="14.00" fill="#000000">WorkModule</text>
</g>
<!-- WorkModule&#45;&gt;AppModule -->
<g id="edge5" class="edge">
<title>WorkModule&#45;&gt;AppModule</title>
<path fill="none" stroke="#000000" d="M1646,-122.0336C1646,-139.0597 1646,-162 1646,-162 1646,-162 1448.677,-162 1448.677,-162"/>
<polygon fill="#000000" stroke="#000000" points="1448.677,-158.5001 1438.677,-162 1448.677,-165.5001 1448.677,-158.5001"/>
</g>
<!-- FormsModule -->
<g id="node7" class="node">
<title>FormsModule</title>
<polygon fill="#8dd3c7" stroke="#000000" points="1582.8288,-122 1579.8288,-126 1558.8288,-126 1555.8288,-122 1487.1712,-122 1487.1712,-86 1582.8288,-86 1582.8288,-122"/>
<text text-anchor="middle" x="1535" y="-99.8" font-family="Times,serif" font-size="14.00" fill="#000000">FormsModule</text>
</g>
<!-- FormsModule&#45;&gt;AppModule -->
<g id="edge6" class="edge">
<title>FormsModule&#45;&gt;AppModule</title>
<path fill="none" stroke="#000000" d="M1535,-122.2396C1535,-137.5706 1535,-157 1535,-157 1535,-157 1448.779,-157 1448.779,-157"/>
<polygon fill="#000000" stroke="#000000" points="1448.7791,-153.5001 1438.779,-157 1448.779,-160.5001 1448.7791,-153.5001"/>
</g>
<!-- ReactiveFormsModule -->
<g id="node8" class="node">
<title>ReactiveFormsModule</title>
<polygon fill="#8dd3c7" stroke="#000000" points="1469.3047,-122 1466.3047,-126 1445.3047,-126 1442.3047,-122 1324.6953,-122 1324.6953,-86 1469.3047,-86 1469.3047,-122"/>
<text text-anchor="middle" x="1397" y="-99.8" font-family="Times,serif" font-size="14.00" fill="#000000">ReactiveFormsModule</text>
</g>
<!-- ReactiveFormsModule&#45;&gt;AppModule -->
<g id="edge7" class="edge">
<title>ReactiveFormsModule&#45;&gt;AppModule</title>
<path fill="none" stroke="#000000" d="M1397,-122.1061C1397,-122.1061 1397,-140.991 1397,-140.991"/>
<polygon fill="#000000" stroke="#000000" points="1393.5001,-140.9909 1397,-150.991 1400.5001,-140.991 1393.5001,-140.9909"/>
</g>
<!-- AngularFireDatabaseModule -->
<g id="node9" class="node">
<title>AngularFireDatabaseModule</title>
<polygon fill="#8dd3c7" stroke="#000000" points="1306.771,-122 1303.771,-126 1282.771,-126 1279.771,-122 1127.229,-122 1127.229,-86 1306.771,-86 1306.771,-122"/>
<text text-anchor="middle" x="1217" y="-99.8" font-family="Times,serif" font-size="14.00" fill="#000000">AngularFireDatabaseModule</text>
</g>
<!-- AngularFireDatabaseModule&#45;&gt;AppModule -->
<g id="edge8" class="edge">
<title>AngularFireDatabaseModule&#45;&gt;AppModule</title>
<path fill="none" stroke="#000000" d="M1217,-122.2396C1217,-137.5706 1217,-157 1217,-157 1217,-157 1345.252,-157 1345.252,-157"/>
<polygon fill="#000000" stroke="#000000" points="1345.252,-160.5001 1355.252,-157 1345.2519,-153.5001 1345.252,-160.5001"/>
</g>
<!-- AngularFireModule.initializeApp(args) -->
<g id="node10" class="node">
<title>AngularFireModule.initializeApp(args)</title>
<polygon fill="#8dd3c7" stroke="#000000" points="1109.7057,-122 1106.7057,-126 1085.7057,-126 1082.7057,-122 872.2943,-122 872.2943,-86 1109.7057,-86 1109.7057,-122"/>
<text text-anchor="middle" x="991" y="-99.8" font-family="Times,serif" font-size="14.00" fill="#000000">AngularFireModule.initializeApp(args)</text>
</g>
<!-- AngularFireModule.initializeApp(args)&#45;&gt;AppModule -->
<g id="edge9" class="edge">
<title>AngularFireModule.initializeApp(args)&#45;&gt;AppModule</title>
<path fill="none" stroke="#000000" d="M991,-122.0336C991,-139.0597 991,-162 991,-162 991,-162 1345.0801,-162 1345.0801,-162"/>
<polygon fill="#000000" stroke="#000000" points="1345.0801,-165.5001 1355.0801,-162 1345.08,-158.5001 1345.0801,-165.5001"/>
</g>
<!-- AngularFireAuth -->
<g id="node12" class="node">
<title>AngularFireAuth</title>
<ellipse fill="#fdb462" stroke="#000000" cx="770" cy="-104" rx="77.5878" ry="18"/>
<text text-anchor="middle" x="770" y="-99.8" font-family="Times,serif" font-size="14.00" fill="#000000">AngularFireAuth</text>
</g>
<!-- AngularFireAuth&#45;&gt;AppModule -->
<g id="edge11" class="edge">
<title>AngularFireAuth&#45;&gt;AppModule</title>
<path fill="none" stroke="#000000" d="M770,-122.2222C770,-140.8285 770,-167 770,-167 770,-167 1344.8872,-167 1344.8872,-167"/>
<polygon fill="#000000" stroke="#000000" points="1344.8872,-170.5001 1354.8872,-167 1344.8871,-163.5001 1344.8872,-170.5001"/>
</g>
<!-- AuthService -->
<g id="node13" class="node">
<title>AuthService</title>
<ellipse fill="#fdb462" stroke="#000000" cx="615" cy="-104" rx="59.1083" ry="18"/>
<text text-anchor="middle" x="615" y="-99.8" font-family="Times,serif" font-size="14.00" fill="#000000">AuthService</text>
</g>
<!-- AuthService&#45;&gt;AppModule -->
<g id="edge12" class="edge">
<title>AuthService&#45;&gt;AppModule</title>
<path fill="none" stroke="#000000" d="M615,-122.2228C615,-142.3652 615,-172 615,-172 615,-172 1345.2327,-172 1345.2327,-172"/>
<polygon fill="#000000" stroke="#000000" points="1345.2328,-175.5001 1355.2327,-172 1345.2327,-168.5001 1345.2328,-175.5001"/>
</g>
<!-- AppService -->
<g id="node14" class="node">
<title>AppService</title>
<ellipse fill="#fdb462" stroke="#000000" cx="481" cy="-104" rx="56.7406" ry="18"/>
<text text-anchor="middle" x="481" y="-99.8" font-family="Times,serif" font-size="14.00" fill="#000000">AppService</text>
</g>
<!-- AppService&#45;&gt;AppModule -->
<g id="edge13" class="edge">
<title>AppService&#45;&gt;AppModule</title>
<path fill="none" stroke="#000000" d="M481,-122.0449C481,-143.6623 481,-177 481,-177 481,-177 1345.2611,-177 1345.2611,-177"/>
<polygon fill="#000000" stroke="#000000" points="1345.2612,-180.5001 1355.2611,-177 1345.2611,-173.5001 1345.2612,-180.5001"/>
</g>
<!-- { provide: APP_BASE_HREF, useValue: &#39;/&#39; } -->
<g id="node15" class="node">
<title>{ provide: APP_BASE_HREF, useValue: &#39;/&#39; }</title>
<ellipse fill="#fdb462" stroke="#000000" cx="215" cy="-104" rx="191.343" ry="18"/>
<text text-anchor="middle" x="215" y="-99.8" font-family="Times,serif" font-size="14.00" fill="#000000">{ provide: APP_BASE_HREF, useValue: &#39;/&#39; }</text>
</g>
<!-- { provide: APP_BASE_HREF, useValue: &#39;/&#39; }&#45;&gt;AppModule -->
<g id="edge14" class="edge">
<title>{ provide: APP_BASE_HREF, useValue: &#39;/&#39; }&#45;&gt;AppModule</title>
<path fill="none" stroke="#000000" d="M215,-122.0908C215,-145.1328 215,-182 215,-182 215,-182 1345.2792,-182 1345.2792,-182"/>
<polygon fill="#000000" stroke="#000000" points="1345.2792,-185.5001 1355.2792,-182 1345.2791,-178.5001 1345.2792,-185.5001"/>
</g>
</g>
</svg>
