<?xml version="1.0" encoding="UTF-8" standalone="no"?>
<!DOCTYPE svg PUBLIC "-//W3C//DTD SVG 1.1//EN"
 "http://www.w3.org/Graphics/SVG/1.1/DTD/svg11.dtd">
<!-- Generated by graphviz version 2.40.1 (20161225.0304)
 -->
<!-- Title: dependencies Pages: 1 -->
<svg width="887pt" height="284pt"
 viewBox="0.00 0.00 887.00 284.00" xmlns="http://www.w3.org/2000/svg" xmlns:xlink="http://www.w3.org/1999/xlink">
<g id="graph0" class="graph" transform="scale(1 1) rotate(0) translate(4 280)">
<title>dependencies</title>
<polygon fill="#ffffff" stroke="transparent" points="-4,4 -4,-280 883,-280 883,4 -4,4"/>
<text text-anchor="start" x="418.5091" y="-42.4" font-family="sans-serif" font-weight="bold" font-size="14.00" fill="#000000">Legend</text>
<polygon fill="#ffffb3" stroke="transparent" points="205.5,-10 205.5,-30 225.5,-30 225.5,-10 205.5,-10"/>
<text text-anchor="start" x="229.129" y="-15.4" font-family="sans-serif" font-size="14.00" fill="#000000"> &#160;Declarations</text>
<polygon fill="#8dd3c7" stroke="transparent" points="318.5,-10 318.5,-30 338.5,-30 338.5,-10 318.5,-10"/>
<text text-anchor="start" x="342.2251" y="-15.4" font-family="sans-serif" font-size="14.00" fill="#000000"> &#160;Module</text>
<polygon fill="#80b1d3" stroke="transparent" points="404.5,-10 404.5,-30 424.5,-30 424.5,-10 404.5,-10"/>
<text text-anchor="start" x="428.2812" y="-15.4" font-family="sans-serif" font-size="14.00" fill="#000000"> &#160;Bootstrap</text>
<polygon fill="#fdb462" stroke="transparent" points="501.5,-10 501.5,-30 521.5,-30 521.5,-10 501.5,-10"/>
<text text-anchor="start" x="525.1732" y="-15.4" font-family="sans-serif" font-size="14.00" fill="#000000"> &#160;Providers</text>
<polygon fill="#fb8072" stroke="transparent" points="597.5,-10 597.5,-30 617.5,-30 617.5,-10 597.5,-10"/>
<text text-anchor="start" x="621.2258" y="-15.4" font-family="sans-serif" font-size="14.00" fill="#000000"> &#160;Exports</text>
<g id="clust1" class="cluster">
<title>cluster_HomeModule</title>
<polygon fill="none" stroke="#000000" stroke-dasharray="1,5" points="8,-70 8,-268 871,-268 871,-70 8,-70"/>
</g>
<g id="clust2" class="cluster">
<title>cluster_HomeModule_declarations</title>
<polygon fill="none" stroke="#000000" points="731,-78 731,-130 863,-130 863,-78 731,-78"/>
</g>
<g id="clust4" class="cluster">
<title>cluster_HomeModule_imports</title>
<polygon fill="none" stroke="#000000" points="174,-78 174,-130 723,-130 723,-78 174,-78"/>
</g>
<g id="clust5" class="cluster">
<title>cluster_HomeModule_exports</title>
<polygon fill="none" stroke="#000000" points="379,-208 379,-260 515,-260 515,-208 379,-208"/>
</g>
<g id="clust7" class="cluster">
<title>cluster_HomeModule_providers</title>
<polygon fill="none" stroke="#000000" points="16,-78 16,-130 166,-130 166,-78 16,-78"/>
</g>
<!-- HomeComponent -->
<g id="node1" class="node">
<title>HomeComponent</title>
<polygon fill="#ffffb3" stroke="#000000" points="854.5451,-122 739.4549,-122 739.4549,-86 854.5451,-86 854.5451,-122"/>
<text text-anchor="middle" x="797" y="-99.8" font-family="Times,serif" font-size="14.00" fill="#000000">HomeComponent</text>
</g>
<!-- HomeModule -->
<g id="node2" class="node">
<title>HomeModule</title>
<polygon fill="#8dd3c7" stroke="#000000" points="493.7619,-187 490.7619,-191 469.7619,-191 466.7619,-187 400.2381,-187 400.2381,-151 493.7619,-151 493.7619,-187"/>
<text text-anchor="middle" x="447" y="-164.8" font-family="Times,serif" font-size="14.00" fill="#000000">HomeModule</text>
</g>
<!-- HomeComponent&#45;&gt;HomeModule -->
<g id="edge1" class="edge">
<title>HomeComponent&#45;&gt;HomeModule</title>
<path fill="none" stroke="#000000" d="M797,-122.2843C797,-143.3211 797,-175 797,-175 797,-175 503.8394,-175 503.8394,-175"/>
<polygon fill="#000000" stroke="#000000" points="503.8394,-171.5001 493.8394,-175 503.8394,-178.5001 503.8394,-171.5001"/>
</g>
<!-- HomeComponent  -->
<g id="node7" class="node">
<title>HomeComponent </title>
<polygon fill="#fb8072" stroke="#000000" points="506.5442,-252 387.4558,-252 387.4558,-216 506.5442,-216 506.5442,-252"/>
<text text-anchor="middle" x="447" y="-229.8" font-family="Times,serif" font-size="14.00" fill="#000000">HomeComponent </text>
</g>
<!-- HomeModule&#45;&gt;HomeComponent  -->
<g id="edge6" class="edge">
<title>HomeModule&#45;&gt;HomeComponent </title>
<path fill="none" stroke="#000000" stroke-dasharray="5,2" d="M447,-187.1061C447,-187.1061 447,-205.991 447,-205.991"/>
<polygon fill="#000000" stroke="#000000" points="443.5001,-205.9909 447,-215.991 450.5001,-205.991 443.5001,-205.9909"/>
</g>
<!-- CommonModule -->
<g id="node3" class="node">
<title>CommonModule</title>
<polygon fill="#8dd3c7" stroke="#000000" points="714.6681,-122 711.6681,-126 690.6681,-126 687.6681,-122 603.3319,-122 603.3319,-86 714.6681,-86 714.6681,-122"/>
<text text-anchor="middle" x="659" y="-99.8" font-family="Times,serif" font-size="14.00" fill="#000000">CommonModule</text>
</g>
<!-- CommonModule&#45;&gt;HomeModule -->
<g id="edge2" class="edge">
<title>CommonModule&#45;&gt;HomeModule</title>
<path fill="none" stroke="#000000" d="M659,-122.0225C659,-139.3734 659,-163 659,-163 659,-163 503.7867,-163 503.7867,-163"/>
<polygon fill="#000000" stroke="#000000" points="503.7868,-159.5001 493.7867,-163 503.7867,-166.5001 503.7868,-159.5001"/>
</g>
<!-- ReactiveFormsModule -->
<g id="node4" class="node">
<title>ReactiveFormsModule</title>
<polygon fill="#8dd3c7" stroke="#000000" points="585.3047,-122 582.3047,-126 561.3047,-126 558.3047,-122 440.6953,-122 440.6953,-86 585.3047,-86 585.3047,-122"/>
<text text-anchor="middle" x="513" y="-99.8" font-family="Times,serif" font-size="14.00" fill="#000000">ReactiveFormsModule</text>
</g>
<!-- ReactiveFormsModule&#45;&gt;HomeModule -->
<g id="edge3" class="edge">
<title>ReactiveFormsModule&#45;&gt;HomeModule</title>
<path fill="none" stroke="#000000" d="M467.3643,-122.1061C467.3643,-122.1061 467.3643,-140.991 467.3643,-140.991"/>
<polygon fill="#000000" stroke="#000000" points="463.8644,-140.9909 467.3643,-150.991 470.8644,-140.991 463.8644,-140.9909"/>
</g>
<!-- HttpModule -->
<g id="node5" class="node">
<title>HttpModule</title>
<polygon fill="#8dd3c7" stroke="#000000" points="423.4387,-122 420.4387,-126 399.4387,-126 396.4387,-122 338.5613,-122 338.5613,-86 423.4387,-86 423.4387,-122"/>
<text text-anchor="middle" x="381" y="-99.8" font-family="Times,serif" font-size="14.00" fill="#000000">HttpModule</text>
</g>
<!-- HttpModule&#45;&gt;HomeModule -->
<g id="edge4" class="edge">
<title>HttpModule&#45;&gt;HomeModule</title>
<path fill="none" stroke="#000000" d="M411.669,-122.1061C411.669,-122.1061 411.669,-140.991 411.669,-140.991"/>
<polygon fill="#000000" stroke="#000000" points="408.1691,-140.9909 411.669,-150.991 415.1691,-140.991 408.1691,-140.9909"/>
</g>
<!-- HomeRoutingModule -->
<g id="node6" class="node">
<title>HomeRoutingModule</title>
<polygon fill="#8dd3c7" stroke="#000000" points="320.3795,-122 317.3795,-126 296.3795,-126 293.3795,-122 181.6205,-122 181.6205,-86 320.3795,-86 320.3795,-122"/>
<text text-anchor="middle" x="251" y="-99.8" font-family="Times,serif" font-size="14.00" fill="#000000">HomeRoutingModule</text>
</g>
<!-- HomeRoutingModule&#45;&gt;HomeModule -->
<g id="edge5" class="edge">
<title>HomeRoutingModule&#45;&gt;HomeModule</title>
<path fill="none" stroke="#000000" d="M251,-122.0225C251,-139.3734 251,-163 251,-163 251,-163 390.0531,-163 390.0531,-163"/>
<polygon fill="#000000" stroke="#000000" points="390.0532,-166.5001 400.0531,-163 390.0531,-159.5001 390.0532,-166.5001"/>
</g>
<!-- Authexitguard -->
<g id="node8" class="node">
<title>Authexitguard</title>
<ellipse fill="#fdb462" stroke="#000000" cx="91" cy="-104" rx="66.6363" ry="18"/>
<text text-anchor="middle" x="91" y="-99.8" font-family="Times,serif" font-size="14.00" fill="#000000">Authexitguard</text>
</g>
<!-- Authexitguard&#45;&gt;HomeModule -->
<g id="edge7" class="edge">
<title>Authexitguard&#45;&gt;HomeModule</title>
<path fill="none" stroke="#000000" d="M91,-122.2843C91,-143.3211 91,-175 91,-175 91,-175 390.0931,-175 390.0931,-175"/>
<polygon fill="#000000" stroke="#000000" points="390.0932,-178.5001 400.0931,-175 390.0931,-171.5001 390.0932,-178.5001"/>
</g>
</g>
</svg>
