<?xml version="1.0" encoding="UTF-8" standalone="no"?>
<!DOCTYPE svg PUBLIC "-//W3C//DTD SVG 1.1//EN"
 "http://www.w3.org/Graphics/SVG/1.1/DTD/svg11.dtd">
<!-- Generated by graphviz version 2.40.1 (20161225.0304)
 -->
<!-- Title: dependencies Pages: 1 -->
<svg width="1148pt" height="284pt"
 viewBox="0.00 0.00 1148.00 284.00" xmlns="http://www.w3.org/2000/svg" xmlns:xlink="http://www.w3.org/1999/xlink">
<g id="graph0" class="graph" transform="scale(1 1) rotate(0) translate(4 280)">
<title>dependencies</title>
<polygon fill="#ffffff" stroke="transparent" points="-4,4 -4,-280 1144,-280 1144,4 -4,4"/>
<text text-anchor="start" x="549.0091" y="-42.4" font-family="sans-serif" font-weight="bold" font-size="14.00" fill="#000000">Legend</text>
<polygon fill="#ffffb3" stroke="transparent" points="336,-10 336,-30 356,-30 356,-10 336,-10"/>
<text text-anchor="start" x="359.629" y="-15.4" font-family="sans-serif" font-size="14.00" fill="#000000"> &#160;Declarations</text>
<polygon fill="#8dd3c7" stroke="transparent" points="449,-10 449,-30 469,-30 469,-10 449,-10"/>
<text text-anchor="start" x="472.7251" y="-15.4" font-family="sans-serif" font-size="14.00" fill="#000000"> &#160;Module</text>
<polygon fill="#80b1d3" stroke="transparent" points="535,-10 535,-30 555,-30 555,-10 535,-10"/>
<text text-anchor="start" x="558.7812" y="-15.4" font-family="sans-serif" font-size="14.00" fill="#000000"> &#160;Bootstrap</text>
<polygon fill="#fdb462" stroke="transparent" points="632,-10 632,-30 652,-30 652,-10 632,-10"/>
<text text-anchor="start" x="655.6732" y="-15.4" font-family="sans-serif" font-size="14.00" fill="#000000"> &#160;Providers</text>
<polygon fill="#fb8072" stroke="transparent" points="728,-10 728,-30 748,-30 748,-10 728,-10"/>
<text text-anchor="start" x="751.7258" y="-15.4" font-family="sans-serif" font-size="14.00" fill="#000000"> &#160;Exports</text>
<g id="clust1" class="cluster">
<title>cluster_WorkModule</title>
<polygon fill="none" stroke="#000000" stroke-dasharray="1,5" points="8,-70 8,-268 1132,-268 1132,-70 8,-70"/>
</g>
<g id="clust2" class="cluster">
<title>cluster_WorkModule_declarations</title>
<polygon fill="none" stroke="#000000" points="698,-78 698,-130 1124,-130 1124,-78 698,-78"/>
</g>
<g id="clust6" class="cluster">
<title>cluster_WorkModule_imports</title>
<polygon fill="none" stroke="#000000" points="144,-78 144,-130 690,-130 690,-78 144,-78"/>
</g>
<g id="clust7" class="cluster">
<title>cluster_WorkModule_exports</title>
<polygon fill="none" stroke="#000000" points="487,-208 487,-260 619,-260 619,-208 487,-208"/>
</g>
<g id="clust9" class="cluster">
<title>cluster_WorkModule_providers</title>
<polygon fill="none" stroke="#000000" points="16,-78 16,-130 136,-130 136,-78 16,-78"/>
</g>
<!-- WorkComponent -->
<g id="node1" class="node">
<title>WorkComponent</title>
<polygon fill="#ffffb3" stroke="#000000" points="1115.7078,-122 1002.2922,-122 1002.2922,-86 1115.7078,-86 1115.7078,-122"/>
<text text-anchor="middle" x="1059" y="-99.8" font-family="Times,serif" font-size="14.00" fill="#000000">WorkComponent</text>
</g>
<!-- WorkModule -->
<g id="node4" class="node">
<title>WorkModule</title>
<polygon fill="#8dd3c7" stroke="#000000" points="598.926,-187 595.926,-191 574.926,-191 571.926,-187 507.074,-187 507.074,-151 598.926,-151 598.926,-187"/>
<text text-anchor="middle" x="553" y="-164.8" font-family="Times,serif" font-size="14.00" fill="#000000">WorkModule</text>
</g>
<!-- WorkComponent&#45;&gt;WorkModule -->
<g id="edge1" class="edge">
<title>WorkComponent&#45;&gt;WorkModule</title>
<path fill="none" stroke="#000000" d="M1059,-122.2921C1059,-144.2057 1059,-178 1059,-178 1059,-178 608.7966,-178 608.7966,-178"/>
<polygon fill="#000000" stroke="#000000" points="608.7966,-174.5001 598.7966,-178 608.7965,-181.5001 608.7966,-174.5001"/>
</g>
<!-- EstudianteComponent -->
<g id="node2" class="node">
<title>EstudianteComponent</title>
<polygon fill="#ffffb3" stroke="#000000" points="984.4313,-122 843.5687,-122 843.5687,-86 984.4313,-86 984.4313,-122"/>
<text text-anchor="middle" x="914" y="-99.8" font-family="Times,serif" font-size="14.00" fill="#000000">EstudianteComponent</text>
</g>
<!-- EstudianteComponent&#45;&gt;WorkModule -->
<g id="edge2" class="edge">
<title>EstudianteComponent&#45;&gt;WorkModule</title>
<path fill="none" stroke="#000000" d="M914,-122.1061C914,-141.3391 914,-169 914,-169 914,-169 608.7209,-169 608.7209,-169"/>
<polygon fill="#000000" stroke="#000000" points="608.7209,-165.5001 598.7209,-169 608.7209,-172.5001 608.7209,-165.5001"/>
</g>
<!-- SaludoComponent -->
<g id="node3" class="node">
<title>SaludoComponent</title>
<polygon fill="#ffffb3" stroke="#000000" points="826.2204,-122 705.7796,-122 705.7796,-86 826.2204,-86 826.2204,-122"/>
<text text-anchor="middle" x="766" y="-99.8" font-family="Times,serif" font-size="14.00" fill="#000000">SaludoComponent</text>
</g>
<!-- SaludoComponent&#45;&gt;WorkModule -->
<g id="edge3" class="edge">
<title>SaludoComponent&#45;&gt;WorkModule</title>
<path fill="none" stroke="#000000" d="M766,-122.027C766,-138.3976 766,-160 766,-160 766,-160 608.9556,-160 608.9556,-160"/>
<polygon fill="#000000" stroke="#000000" points="608.9556,-156.5001 598.9556,-160 608.9556,-163.5001 608.9556,-156.5001"/>
</g>
<!-- WorkComponent  -->
<g id="node9" class="node">
<title>WorkComponent </title>
<polygon fill="#fb8072" stroke="#000000" points="611.208,-252 494.792,-252 494.792,-216 611.208,-216 611.208,-252"/>
<text text-anchor="middle" x="553" y="-229.8" font-family="Times,serif" font-size="14.00" fill="#000000">WorkComponent </text>
</g>
<!-- WorkModule&#45;&gt;WorkComponent  -->
<g id="edge8" class="edge">
<title>WorkModule&#45;&gt;WorkComponent </title>
<path fill="none" stroke="#000000" stroke-dasharray="5,2" d="M553,-187.1061C553,-187.1061 553,-205.991 553,-205.991"/>
<polygon fill="#000000" stroke="#000000" points="549.5001,-205.9909 553,-215.991 556.5001,-205.991 549.5001,-205.9909"/>
</g>
<!-- CommonModule -->
<g id="node5" class="node">
<title>CommonModule</title>
<polygon fill="#8dd3c7" stroke="#000000" points="681.6681,-122 678.6681,-126 657.6681,-126 654.6681,-122 570.3319,-122 570.3319,-86 681.6681,-86 681.6681,-122"/>
<text text-anchor="middle" x="626" y="-99.8" font-family="Times,serif" font-size="14.00" fill="#000000">CommonModule</text>
</g>
<!-- CommonModule&#45;&gt;WorkModule -->
<g id="edge4" class="edge">
<title>CommonModule&#45;&gt;WorkModule</title>
<path fill="none" stroke="#000000" d="M584.4394,-122.1061C584.4394,-122.1061 584.4394,-140.991 584.4394,-140.991"/>
<polygon fill="#000000" stroke="#000000" points="580.9394,-140.9909 584.4394,-150.991 587.9394,-140.991 580.9394,-140.9909"/>
</g>
<!-- ReactiveFormsModule -->
<g id="node6" class="node">
<title>ReactiveFormsModule</title>
<polygon fill="#8dd3c7" stroke="#000000" points="552.3047,-122 549.3047,-126 528.3047,-126 525.3047,-122 407.6953,-122 407.6953,-86 552.3047,-86 552.3047,-122"/>
<text text-anchor="middle" x="480" y="-99.8" font-family="Times,serif" font-size="14.00" fill="#000000">ReactiveFormsModule</text>
</g>
<!-- ReactiveFormsModule&#45;&gt;WorkModule -->
<g id="edge5" class="edge">
<title>ReactiveFormsModule&#45;&gt;WorkModule</title>
<path fill="none" stroke="#000000" d="M529.7198,-122.1061C529.7198,-122.1061 529.7198,-140.991 529.7198,-140.991"/>
<polygon fill="#000000" stroke="#000000" points="526.2199,-140.9909 529.7198,-150.991 533.2199,-140.991 526.2199,-140.9909"/>
</g>
<!-- HttpModule -->
<g id="node7" class="node">
<title>HttpModule</title>
<polygon fill="#8dd3c7" stroke="#000000" points="390.4387,-122 387.4387,-126 366.4387,-126 363.4387,-122 305.5613,-122 305.5613,-86 390.4387,-86 390.4387,-122"/>
<text text-anchor="middle" x="348" y="-99.8" font-family="Times,serif" font-size="14.00" fill="#000000">HttpModule</text>
</g>
<!-- HttpModule&#45;&gt;WorkModule -->
<g id="edge6" class="edge">
<title>HttpModule&#45;&gt;WorkModule</title>
<path fill="none" stroke="#000000" d="M348,-122.027C348,-138.3976 348,-160 348,-160 348,-160 497.2492,-160 497.2492,-160"/>
<polygon fill="#000000" stroke="#000000" points="497.2492,-163.5001 507.2492,-160 497.2491,-156.5001 497.2492,-163.5001"/>
</g>
<!-- WorkRoutingModule -->
<g id="node8" class="node">
<title>WorkRoutingModule</title>
<polygon fill="#8dd3c7" stroke="#000000" points="288.0436,-122 285.0436,-126 264.0436,-126 261.0436,-122 151.9564,-122 151.9564,-86 288.0436,-86 288.0436,-122"/>
<text text-anchor="middle" x="220" y="-99.8" font-family="Times,serif" font-size="14.00" fill="#000000">WorkRoutingModule</text>
</g>
<!-- WorkRoutingModule&#45;&gt;WorkModule -->
<g id="edge7" class="edge">
<title>WorkRoutingModule&#45;&gt;WorkModule</title>
<path fill="none" stroke="#000000" d="M220,-122.1061C220,-141.3391 220,-169 220,-169 220,-169 497.0474,-169 497.0474,-169"/>
<polygon fill="#000000" stroke="#000000" points="497.0474,-172.5001 507.0474,-169 497.0474,-165.5001 497.0474,-172.5001"/>
</g>
<!-- Authguard -->
<g id="node10" class="node">
<title>Authguard</title>
<ellipse fill="#fdb462" stroke="#000000" cx="76" cy="-104" rx="52.1713" ry="18"/>
<text text-anchor="middle" x="76" y="-99.8" font-family="Times,serif" font-size="14.00" fill="#000000">Authguard</text>
</g>
<!-- Authguard&#45;&gt;WorkModule -->
<g id="edge9" class="edge">
<title>Authguard&#45;&gt;WorkModule</title>
<path fill="none" stroke="#000000" d="M76,-122.2921C76,-144.2057 76,-178 76,-178 76,-178 497.2632,-178 497.2632,-178"/>
<polygon fill="#000000" stroke="#000000" points="497.2633,-181.5001 507.2632,-178 497.2632,-174.5001 497.2633,-181.5001"/>
</g>
</g>
</svg>
